<svg aria-roledescription="er" role="graphics-document document" viewBox="0 0 588.0982666015625 788" style="max-width: 588.098px; background-color: white;" xmlns:xlink="http://www.w3.org/1999/xlink" xmlns="http://www.w3.org/2000/svg" width="100%" id="mermaid-0"><style>#mermaid-0{font-family:"trebuchet ms",verdana,arial,sans-serif;font-size:16px;fill:#000000;}#mermaid-0 .error-icon{fill:#552222;}#mermaid-0 .error-text{fill:#552222;stroke:#552222;}#mermaid-0 .edge-thickness-normal{stroke-width:2px;}#mermaid-0 .edge-thickness-thick{stroke-width:3.5px;}#mermaid-0 .edge-pattern-solid{stroke-dasharray:0;}#mermaid-0 .edge-pattern-dashed{stroke-dasharray:3;}#mermaid-0 .edge-pattern-dotted{stroke-dasharray:2;}#mermaid-0 .marker{fill:#000000;stroke:#000000;}#mermaid-0 .marker.cross{stroke:#000000;}#mermaid-0 svg{font-family:"trebuchet ms",verdana,arial,sans-serif;font-size:16px;}#mermaid-0 .entityBox{fill:#cde498;stroke:#13540c;}#mermaid-0 .attributeBoxOdd{fill:#ffffff;stroke:#13540c;}#mermaid-0 .attributeBoxEven{fill:#f2f2f2;stroke:#13540c;}#mermaid-0 .relationshipLabelBox{fill:hsl(78.1578947368, 58.4615384615%, 84.5098039216%);opacity:0.7;background-color:hsl(78.1578947368, 58.4615384615%, 84.5098039216%);}#mermaid-0 .relationshipLabelBox rect{opacity:0.5;}#mermaid-0 .relationshipLine{stroke:#000000;}#mermaid-0 .entityTitleText{text-anchor:middle;font-size:18px;fill:#000000;}#mermaid-0 :root{--mermaid-font-family:"trebuchet ms",verdana,arial,sans-serif;}</style><g/><defs><marker orient="auto" markerHeight="18" markerWidth="18" refY="9" refX="0" id="ONLY_ONE_START"><path d="M9,0 L9,18 M15,0 L15,18" fill="none" stroke="gray"/></marker></defs><defs><marker orient="auto" markerHeight="18" markerWidth="18" refY="9" refX="18" id="ONLY_ONE_END"><path d="M3,0 L3,18 M9,0 L9,18" fill="none" stroke="gray"/></marker></defs><defs><marker orient="auto" markerHeight="18" markerWidth="30" refY="9" refX="0" id="ZERO_OR_ONE_START"><circle r="6" cy="9" cx="21" fill="white" stroke="gray"/><path d="M9,0 L9,18" fill="none" stroke="gray"/></marker></defs><defs><marker orient="auto" markerHeight="18" markerWidth="30" refY="9" refX="30" id="ZERO_OR_ONE_END"><circle r="6" cy="9" cx="9" fill="white" stroke="gray"/><path d="M21,0 L21,18" fill="none" stroke="gray"/></marker></defs><defs><marker orient="auto" markerHeight="36" markerWidth="45" refY="18" refX="18" id="ONE_OR_MORE_START"><path d="M0,18 Q 18,0 36,18 Q 18,36 0,18 M42,9 L42,27" fill="none" stroke="gray"/></marker></defs><defs><marker orient="auto" markerHeight="36" markerWidth="45" refY="18" refX="27" id="ONE_OR_MORE_END"><path d="M3,9 L3,27 M9,18 Q27,0 45,18 Q27,36 9,18" fill="none" stroke="gray"/></marker></defs><defs><marker orient="auto" markerHeight="36" markerWidth="57" refY="18" refX="18" id="ZERO_OR_MORE_START"><circle r="6" cy="18" cx="48" fill="white" stroke="gray"/><path d="M0,18 Q18,0 36,18 Q18,36 0,18" fill="none" stroke="gray"/></marker></defs><defs><marker orient="auto" markerHeight="36" markerWidth="57" refY="18" refX="39" id="ZERO_OR_MORE_END"><circle r="6" cy="18" cx="9" fill="white" stroke="gray"/><path d="M21,18 Q39,0 57,18 Q39,36 21,18" fill="none" stroke="gray"/></marker></defs><path style="stroke: gray; fill: none;" marker-start="url(#ZERO_OR_MORE_START)" marker-end="url(#ONLY_ONE_END)" d="M193.0792999267578,457.68459772911444L245.60641288757324,478.73716477426206C298.1335258483887,499.7897318194096,403.18775177001953,541.8948659097049,455.71486473083496,576.7807662881858C508.2419776916504,611.6666666666666,508.2419776916504,639.3333333333334,508.2419776916504,653.1666666666666L508.2419776916504,667" class="er relationshipLine"/><path style="stroke: gray; fill: none;" marker-start="url(#ZERO_OR_MORE_START)" marker-end="url(#ZERO_OR_ONE_END)" d="M106.5396499633789,534L106.5396499633789,542.3333333333334C106.5396499633789,550.6666666666666,106.5396499633789,567.3333333333334,113.18279989084967,584C119.82594981832044,600.6666666666666,133.11224967326194,617.3333333333334,139.75539960073272,625.6666666666666L146.39854952820346,634" class="er relationshipLine"/><path style="stroke: gray; fill: none;" marker-start="url(#ZERO_OR_MORE_START)" marker-end="url(#ONLY_ONE_END)" d="M226.10024386889313,66L235.6258847833224,74.33333333333333C245.15152569775168,82.66666666666667,264.20280752661023,99.33333333333333,273.72844844103946,116C283.25408935546875,132.66666666666666,283.25408935546875,149.33333333333334,283.25408935546875,157.66666666666666L283.25408935546875,166" class="er relationshipLine"/><path style="stroke: gray; fill: none;" marker-start="url(#ZERO_OR_MORE_START)" marker-end="url(#ONLY_ONE_END)" d="M154.6696670741251,66L138.31466422233407,74.33333333333333C121.95966137054303,82.66666666666667,89.24965566696096,99.33333333333333,72.89465281516993,119.83333333333333C56.539649963378906,140.33333333333334,56.539649963378906,164.66666666666666,56.539649963378906,189C56.539649963378906,213.33333333333334,56.539649963378906,237.66666666666666,59.12764168180541,258.1666666666667C61.7156334002319,278.6666666666667,66.89161683708491,295.3333333333333,69.4796085555114,303.6666666666667L72.06760027393791,312" class="er relationshipLine"/><path style="stroke: gray; fill: none;" marker-start="url(#ZERO_OR_MORE_START)" marker-end="url(#ONLY_ONE_END)" d="M299.007514013003,212L304.7152765700806,220.33333333333334C310.42303912715823,228.66666666666666,321.83856424131346,245.33333333333334,327.54632679839114,280.5C333.25408935546875,315.6666666666667,333.25408935546875,369.3333333333333,333.25408935546875,423C333.25408935546875,476.6666666666667,333.25408935546875,530.3333333333334,323.7494871894858,565.5C314.2448850235029,600.6666666666666,295.235680691537,617.3333333333334,285.7310785255541,625.6666666666666L276.22647635957117,634" class="er relationshipLine"/><path style="stroke: gray; fill: none;" marker-start="url(#ZERO_OR_MORE_START)" marker-end="url(#ONLY_ONE_END)" d="M253.86770614205975,212L243.22046584734633,220.33333333333334C232.57322555263295,228.66666666666666,211.27874496320612,245.33333333333334,196.31242524766455,262C181.34610553212292,278.6666666666667,172.70794669046657,295.3333333333333,168.38886726963838,303.6666666666667L164.06978784881022,312" class="er relationshipLine"/><g transform="translate(20,312 )" id="entity-Match-bb868d25-f1db-5893-b0b3-486d1ccf5a14"><rect height="222" width="173.0792999267578" y="0" x="0" class="er entityBox"/><text style="dominant-baseline: middle; text-anchor: middle; font-size: 12px;" transform="translate(86.5396499633789,12)" y="0" x="0" id="text-entity-Match-bb868d25-f1db-5893-b0b3-486d1ccf5a14" class="er entityLabel">Match</text><rect height="22" width="54.095550537109375" y="24" x="0" class="er attributeBoxOdd"/><text style="dominant-baseline: middle; font-size: 10.2px;" transform="translate(5,35)" y="0" x="0" id="text-entity-Match-bb868d25-f1db-5893-b0b3-486d1ccf5a14-attr-1-type" class="er entityLabel">String</text><rect height="22" width="96.29606628417969" y="24" x="54.095550537109375" class="er attributeBoxOdd"/><text style="dominant-baseline: middle; font-size: 10.2px;" transform="translate(59.095550537109375,35)" y="0" x="0" id="text-entity-Match-bb868d25-f1db-5893-b0b3-486d1ccf5a14-attr-1-name" class="er entityLabel">idMatch</text><rect height="22" width="22.68768310546875" y="24" x="150.39161682128906" class="er attributeBoxOdd"/><text style="dominant-baseline: middle; font-size: 10.2px;" transform="translate(155.39161682128906,35)" y="0" x="0" id="text-entity-Match-bb868d25-f1db-5893-b0b3-486d1ccf5a14-attr-1-key" class="er entityLabel">PK</text><rect height="22" width="54.095550537109375" y="46" x="0" class="er attributeBoxEven"/><text style="dominant-baseline: middle; font-size: 10.2px;" transform="translate(5,57)" y="0" x="0" id="text-entity-Match-bb868d25-f1db-5893-b0b3-486d1ccf5a14-attr-2-type" class="er entityLabel">Int</text><rect height="22" width="96.29606628417969" y="46" x="54.095550537109375" class="er attributeBoxEven"/><text style="dominant-baseline: middle; font-size: 10.2px;" transform="translate(59.095550537109375,57)" y="0" x="0" id="text-entity-Match-bb868d25-f1db-5893-b0b3-486d1ccf5a14-attr-2-name" class="er entityLabel">availableVacancies</text><rect height="22" width="22.68768310546875" y="46" x="150.39161682128906" class="er attributeBoxEven"/><text style="dominant-baseline: middle; font-size: 10.2px;" transform="translate(155.39161682128906,57)" y="0" x="0" id="text-entity-Match-bb868d25-f1db-5893-b0b3-486d1ccf5a14-attr-2-key" class="er entityLabel"/><rect height="22" width="54.095550537109375" y="68" x="0" class="er attributeBoxOdd"/><text style="dominant-baseline: middle; font-size: 10.2px;" transform="translate(5,79)" y="0" x="0" id="text-entity-Match-bb868d25-f1db-5893-b0b3-486d1ccf5a14-attr-3-type" class="er entityLabel">DateTime</text><rect height="22" width="96.29606628417969" y="68" x="54.095550537109375" class="er attributeBoxOdd"/><text style="dominant-baseline: middle; font-size: 10.2px;" transform="translate(59.095550537109375,79)" y="0" x="0" id="text-entity-Match-bb868d25-f1db-5893-b0b3-486d1ccf5a14-attr-3-name" class="er entityLabel">createdFor</text><rect height="22" width="22.68768310546875" y="68" x="150.39161682128906" class="er attributeBoxOdd"/><text style="dominant-baseline: middle; font-size: 10.2px;" transform="translate(155.39161682128906,79)" y="0" x="0" id="text-entity-Match-bb868d25-f1db-5893-b0b3-486d1ccf5a14-attr-3-key" class="er entityLabel"/><rect height="22" width="54.095550537109375" y="90" x="0" class="er attributeBoxEven"/><text style="dominant-baseline: middle; font-size: 10.2px;" transform="translate(5,101)" y="0" x="0" id="text-entity-Match-bb868d25-f1db-5893-b0b3-486d1ccf5a14-attr-4-type" class="er entityLabel">String</text><rect height="22" width="96.29606628417969" y="90" x="54.095550537109375" class="er attributeBoxEven"/><text style="dominant-baseline: middle; font-size: 10.2px;" transform="translate(59.095550537109375,101)" y="0" x="0" id="text-entity-Match-bb868d25-f1db-5893-b0b3-486d1ccf5a14-attr-4-name" class="er entityLabel">CEP</text><rect height="22" width="22.68768310546875" y="90" x="150.39161682128906" class="er attributeBoxEven"/><text style="dominant-baseline: middle; font-size: 10.2px;" transform="translate(155.39161682128906,101)" y="0" x="0" id="text-entity-Match-bb868d25-f1db-5893-b0b3-486d1ccf5a14-attr-4-key" class="er entityLabel"/><rect height="22" width="54.095550537109375" y="112" x="0" class="er attributeBoxOdd"/><text style="dominant-baseline: middle; font-size: 10.2px;" transform="translate(5,123)" y="0" x="0" id="text-entity-Match-bb868d25-f1db-5893-b0b3-486d1ccf5a14-attr-5-type" class="er entityLabel">String</text><rect height="22" width="96.29606628417969" y="112" x="54.095550537109375" class="er attributeBoxOdd"/><text style="dominant-baseline: middle; font-size: 10.2px;" transform="translate(59.095550537109375,123)" y="0" x="0" id="text-entity-Match-bb868d25-f1db-5893-b0b3-486d1ccf5a14-attr-5-name" class="er entityLabel">address</text><rect height="22" width="22.68768310546875" y="112" x="150.39161682128906" class="er attributeBoxOdd"/><text style="dominant-baseline: middle; font-size: 10.2px;" transform="translate(155.39161682128906,123)" y="0" x="0" id="text-entity-Match-bb868d25-f1db-5893-b0b3-486d1ccf5a14-attr-5-key" class="er entityLabel"/><rect height="22" width="54.095550537109375" y="134" x="0" class="er attributeBoxEven"/><text style="dominant-baseline: middle; font-size: 10.2px;" transform="translate(5,145)" y="0" x="0" id="text-entity-Match-bb868d25-f1db-5893-b0b3-486d1ccf5a14-attr-6-type" class="er entityLabel">String</text><rect height="22" width="96.29606628417969" y="134" x="54.095550537109375" class="er attributeBoxEven"/><text style="dominant-baseline: middle; font-size: 10.2px;" transform="translate(59.095550537109375,145)" y="0" x="0" id="text-entity-Match-bb868d25-f1db-5893-b0b3-486d1ccf5a14-attr-6-name" class="er entityLabel">neighborhood</text><rect height="22" width="22.68768310546875" y="134" x="150.39161682128906" class="er attributeBoxEven"/><text style="dominant-baseline: middle; font-size: 10.2px;" transform="translate(155.39161682128906,145)" y="0" x="0" id="text-entity-Match-bb868d25-f1db-5893-b0b3-486d1ccf5a14-attr-6-key" class="er entityLabel"/><rect height="22" width="54.095550537109375" y="156" x="0" class="er attributeBoxOdd"/><text style="dominant-baseline: middle; font-size: 10.2px;" transform="translate(5,167)" y="0" x="0" id="text-entity-Match-bb868d25-f1db-5893-b0b3-486d1ccf5a14-attr-7-type" class="er entityLabel">String</text><rect height="22" width="96.29606628417969" y="156" x="54.095550537109375" class="er attributeBoxOdd"/><text style="dominant-baseline: middle; font-size: 10.2px;" transform="translate(59.095550537109375,167)" y="0" x="0" id="text-entity-Match-bb868d25-f1db-5893-b0b3-486d1ccf5a14-attr-7-name" class="er entityLabel">city</text><rect height="22" width="22.68768310546875" y="156" x="150.39161682128906" class="er attributeBoxOdd"/><text style="dominant-baseline: middle; font-size: 10.2px;" transform="translate(155.39161682128906,167)" y="0" x="0" id="text-entity-Match-bb868d25-f1db-5893-b0b3-486d1ccf5a14-attr-7-key" class="er entityLabel"/><rect height="22" width="54.095550537109375" y="178" x="0" class="er attributeBoxEven"/><text style="dominant-baseline: middle; font-size: 10.2px;" transform="translate(5,189)" y="0" x="0" id="text-entity-Match-bb868d25-f1db-5893-b0b3-486d1ccf5a14-attr-8-type" class="er entityLabel">String</text><rect height="22" width="96.29606628417969" y="178" x="54.095550537109375" class="er attributeBoxEven"/><text style="dominant-baseline: middle; font-size: 10.2px;" transform="translate(59.095550537109375,189)" y="0" x="0" id="text-entity-Match-bb868d25-f1db-5893-b0b3-486d1ccf5a14-attr-8-name" class="er entityLabel">UF</text><rect height="22" width="22.68768310546875" y="178" x="150.39161682128906" class="er attributeBoxEven"/><text style="dominant-baseline: middle; font-size: 10.2px;" transform="translate(155.39161682128906,189)" y="0" x="0" id="text-entity-Match-bb868d25-f1db-5893-b0b3-486d1ccf5a14-attr-8-key" class="er entityLabel"/><rect height="22" width="54.095550537109375" y="200" x="0" class="er attributeBoxOdd"/><text style="dominant-baseline: middle; font-size: 10.2px;" transform="translate(5,211)" y="0" x="0" id="text-entity-Match-bb868d25-f1db-5893-b0b3-486d1ccf5a14-attr-9-type" class="er entityLabel">String</text><rect height="22" width="96.29606628417969" y="200" x="54.095550537109375" class="er attributeBoxOdd"/><text style="dominant-baseline: middle; font-size: 10.2px;" transform="translate(59.095550537109375,211)" y="0" x="0" id="text-entity-Match-bb868d25-f1db-5893-b0b3-486d1ccf5a14-attr-9-name" class="er entityLabel">addressNumber</text><rect height="22" width="22.68768310546875" y="200" x="150.39161682128906" class="er attributeBoxOdd"/><text style="dominant-baseline: middle; font-size: 10.2px;" transform="translate(155.39161682128906,211)" y="0" x="0" id="text-entity-Match-bb868d25-f1db-5893-b0b3-486d1ccf5a14-attr-9-key" class="er entityLabel"/></g><g transform="translate(448.385684967041,667 )" id="entity-Sports-6243ace6-c9bd-52f5-8fea-6643132a1501"><rect height="68" width="119.71258544921875" y="0" x="0" class="er entityBox"/><text style="dominant-baseline: middle; text-anchor: middle; font-size: 12px;" transform="translate(59.856292724609375,12)" y="0" x="0" id="text-entity-Sports-6243ace6-c9bd-52f5-8fea-6643132a1501" class="er entityLabel">Sports</text><rect height="22" width="37.39605712890625" y="24" x="0" class="er attributeBoxOdd"/><text style="dominant-baseline: middle; font-size: 10.2px;" transform="translate(5,35)" y="0" x="0" id="text-entity-Sports-6243ace6-c9bd-52f5-8fea-6643132a1501-attr-1-type" class="er entityLabel">String</text><rect height="22" width="59.62884521484375" y="24" x="37.39605712890625" class="er attributeBoxOdd"/><text style="dominant-baseline: middle; font-size: 10.2px;" transform="translate(42.39605712890625,35)" y="0" x="0" id="text-entity-Sports-6243ace6-c9bd-52f5-8fea-6643132a1501-attr-1-name" class="er entityLabel">idSports</text><rect height="22" width="22.68768310546875" y="24" x="97.02490234375" class="er attributeBoxOdd"/><text style="dominant-baseline: middle; font-size: 10.2px;" transform="translate(102.02490234375,35)" y="0" x="0" id="text-entity-Sports-6243ace6-c9bd-52f5-8fea-6643132a1501-attr-1-key" class="er entityLabel">PK</text><rect height="22" width="37.39605712890625" y="46" x="0" class="er attributeBoxEven"/><text style="dominant-baseline: middle; font-size: 10.2px;" transform="translate(5,57)" y="0" x="0" id="text-entity-Sports-6243ace6-c9bd-52f5-8fea-6643132a1501-attr-2-type" class="er entityLabel">String</text><rect height="22" width="59.62884521484375" y="46" x="37.39605712890625" class="er attributeBoxEven"/><text style="dominant-baseline: middle; font-size: 10.2px;" transform="translate(42.39605712890625,57)" y="0" x="0" id="text-entity-Sports-6243ace6-c9bd-52f5-8fea-6643132a1501-attr-2-name" class="er entityLabel">sportName</text><rect height="22" width="22.68768310546875" y="46" x="97.02490234375" class="er attributeBoxEven"/><text style="dominant-baseline: middle; font-size: 10.2px;" transform="translate(102.02490234375,57)" y="0" x="0" id="text-entity-Sports-6243ace6-c9bd-52f5-8fea-6643132a1501-attr-2-key" class="er entityLabel"/></g><g transform="translate(147.1100959777832,20 )" id="entity-Game-87e52c75-2f34-5ffb-97f0-d4ba8ef70a3a"><rect height="46" width="105.39875793457031" y="0" x="0" class="er entityBox"/><text style="dominant-baseline: middle; text-anchor: middle; font-size: 12px;" transform="translate(52.699378967285156,12)" y="0" x="0" id="text-entity-Game-87e52c75-2f34-5ffb-97f0-d4ba8ef70a3a" class="er entityLabel">Game</text><rect height="22" width="37.39605712890625" y="24" x="0" class="er attributeBoxOdd"/><text style="dominant-baseline: middle; font-size: 10.2px;" transform="translate(5,35)" y="0" x="0" id="text-entity-Game-87e52c75-2f34-5ffb-97f0-d4ba8ef70a3a-attr-1-type" class="er entityLabel">String</text><rect height="22" width="45.31501770019531" y="24" x="37.39605712890625" class="er attributeBoxOdd"/><text style="dominant-baseline: middle; font-size: 10.2px;" transform="translate(42.39605712890625,35)" y="0" x="0" id="text-entity-Game-87e52c75-2f34-5ffb-97f0-d4ba8ef70a3a-attr-1-name" class="er entityLabel">idGame</text><rect height="22" width="22.68768310546875" y="24" x="82.71107482910156" class="er attributeBoxOdd"/><text style="dominant-baseline: middle; font-size: 10.2px;" transform="translate(87.71107482910156,35)" y="0" x="0" id="text-entity-Game-87e52c75-2f34-5ffb-97f0-d4ba8ef70a3a-attr-1-key" class="er entityLabel">PK</text></g><g transform="translate(216.36486053466797,166 )" id="entity-Participants-ceac9b1c-60a4-509c-b83a-0ab1e752a76c"><rect height="46" width="133.77845764160156" y="0" x="0" class="er entityBox"/><text style="dominant-baseline: middle; text-anchor: middle; font-size: 12px;" transform="translate(66.88922882080078,12)" y="0" x="0" id="text-entity-Participants-ceac9b1c-60a4-509c-b83a-0ab1e752a76c" class="er entityLabel">Participants</text><rect height="22" width="37.39605712890625" y="24" x="0" class="er attributeBoxOdd"/><text style="dominant-baseline: middle; font-size: 10.2px;" transform="translate(5,35)" y="0" x="0" id="text-entity-Participants-ceac9b1c-60a4-509c-b83a-0ab1e752a76c-attr-1-type" class="er entityLabel">String</text><rect height="22" width="73.69471740722656" y="24" x="37.39605712890625" class="er attributeBoxOdd"/><text style="dominant-baseline: middle; font-size: 10.2px;" transform="translate(42.39605712890625,35)" y="0" x="0" id="text-entity-Participants-ceac9b1c-60a4-509c-b83a-0ab1e752a76c-attr-1-name" class="er entityLabel">idParticipants</text><rect height="22" width="22.68768310546875" y="24" x="111.09077453613281" class="er attributeBoxOdd"/><text style="dominant-baseline: middle; font-size: 10.2px;" transform="translate(116.09077453613281,35)" y="0" x="0" id="text-entity-Participants-ceac9b1c-60a4-509c-b83a-0ab1e752a76c-attr-1-key" class="er entityLabel">PK</text></g><g transform="translate(109.68999099731445,634 )" id="entity-User-818c511a-4a32-5484-ba70-875d765a9175"><rect height="134" width="180.2389678955078" y="0" x="0" class="er entityBox"/><text style="dominant-baseline: middle; text-anchor: middle; font-size: 12px;" transform="translate(90.1194839477539,12)" y="0" x="0" id="text-entity-User-818c511a-4a32-5484-ba70-875d765a9175" class="er entityLabel">User</text><rect height="22" width="54.095550537109375" y="24" x="0" class="er attributeBoxOdd"/><text style="dominant-baseline: middle; font-size: 10.2px;" transform="translate(5,35)" y="0" x="0" id="text-entity-User-818c511a-4a32-5484-ba70-875d765a9175-attr-1-type" class="er entityLabel">String</text><rect height="22" width="56.243194580078125" y="24" x="54.095550537109375" class="er attributeBoxOdd"/><text style="dominant-baseline: middle; font-size: 10.2px;" transform="translate(59.095550537109375,35)" y="0" x="0" id="text-entity-User-818c511a-4a32-5484-ba70-875d765a9175-attr-1-name" class="er entityLabel">idUser</text><rect height="22" width="22.68768310546875" y="24" x="110.3387451171875" class="er attributeBoxOdd"/><text style="dominant-baseline: middle; font-size: 10.2px;" transform="translate(115.3387451171875,35)" y="0" x="0" id="text-entity-User-818c511a-4a32-5484-ba70-875d765a9175-attr-1-key" class="er entityLabel">PK</text><rect height="22" width="47.21253967285156" y="24" x="133.02642822265625" class="er attributeBoxOdd"/><text style="dominant-baseline: middle; font-size: 10.2px;" transform="translate(138.02642822265625,35)" y="0" x="0" id="text-entity-User-818c511a-4a32-5484-ba70-875d765a9175-attr-1-comment" class="er entityLabel"/><rect height="22" width="54.095550537109375" y="46" x="0" class="er attributeBoxEven"/><text style="dominant-baseline: middle; font-size: 10.2px;" transform="translate(5,57)" y="0" x="0" id="text-entity-User-818c511a-4a32-5484-ba70-875d765a9175-attr-2-type" class="er entityLabel">String</text><rect height="22" width="56.243194580078125" y="46" x="54.095550537109375" class="er attributeBoxEven"/><text style="dominant-baseline: middle; font-size: 10.2px;" transform="translate(59.095550537109375,57)" y="0" x="0" id="text-entity-User-818c511a-4a32-5484-ba70-875d765a9175-attr-2-name" class="er entityLabel">name</text><rect height="22" width="22.68768310546875" y="46" x="110.3387451171875" class="er attributeBoxEven"/><text style="dominant-baseline: middle; font-size: 10.2px;" transform="translate(115.3387451171875,57)" y="0" x="0" id="text-entity-User-818c511a-4a32-5484-ba70-875d765a9175-attr-2-key" class="er entityLabel"/><rect height="22" width="47.21253967285156" y="46" x="133.02642822265625" class="er attributeBoxEven"/><text style="dominant-baseline: middle; font-size: 10.2px;" transform="translate(138.02642822265625,57)" y="0" x="0" id="text-entity-User-818c511a-4a32-5484-ba70-875d765a9175-attr-2-comment" class="er entityLabel"/><rect height="22" width="54.095550537109375" y="68" x="0" class="er attributeBoxOdd"/><text style="dominant-baseline: middle; font-size: 10.2px;" transform="translate(5,79)" y="0" x="0" id="text-entity-User-818c511a-4a32-5484-ba70-875d765a9175-attr-3-type" class="er entityLabel">String</text><rect height="22" width="56.243194580078125" y="68" x="54.095550537109375" class="er attributeBoxOdd"/><text style="dominant-baseline: middle; font-size: 10.2px;" transform="translate(59.095550537109375,79)" y="0" x="0" id="text-entity-User-818c511a-4a32-5484-ba70-875d765a9175-attr-3-name" class="er entityLabel">email</text><rect height="22" width="22.68768310546875" y="68" x="110.3387451171875" class="er attributeBoxOdd"/><text style="dominant-baseline: middle; font-size: 10.2px;" transform="translate(115.3387451171875,79)" y="0" x="0" id="text-entity-User-818c511a-4a32-5484-ba70-875d765a9175-attr-3-key" class="er entityLabel"/><rect height="22" width="47.21253967285156" y="68" x="133.02642822265625" class="er attributeBoxOdd"/><text style="dominant-baseline: middle; font-size: 10.2px;" transform="translate(138.02642822265625,79)" y="0" x="0" id="text-entity-User-818c511a-4a32-5484-ba70-875d765a9175-attr-3-comment" class="er entityLabel"/><rect height="22" width="54.095550537109375" y="90" x="0" class="er attributeBoxEven"/><text style="dominant-baseline: middle; font-size: 10.2px;" transform="translate(5,101)" y="0" x="0" id="text-entity-User-818c511a-4a32-5484-ba70-875d765a9175-attr-4-type" class="er entityLabel">String</text><rect height="22" width="56.243194580078125" y="90" x="54.095550537109375" class="er attributeBoxEven"/><text style="dominant-baseline: middle; font-size: 10.2px;" transform="translate(59.095550537109375,101)" y="0" x="0" id="text-entity-User-818c511a-4a32-5484-ba70-875d765a9175-attr-4-name" class="er entityLabel">avatarUrl</text><rect height="22" width="22.68768310546875" y="90" x="110.3387451171875" class="er attributeBoxEven"/><text style="dominant-baseline: middle; font-size: 10.2px;" transform="translate(115.3387451171875,101)" y="0" x="0" id="text-entity-User-818c511a-4a32-5484-ba70-875d765a9175-attr-4-key" class="er entityLabel"/><rect height="22" width="47.21253967285156" y="90" x="133.02642822265625" class="er attributeBoxEven"/><text style="dominant-baseline: middle; font-size: 10.2px;" transform="translate(138.02642822265625,101)" y="0" x="0" id="text-entity-User-818c511a-4a32-5484-ba70-875d765a9175-attr-4-comment" class="er entityLabel">nullable</text><rect height="22" width="54.095550537109375" y="112" x="0" class="er attributeBoxOdd"/><text style="dominant-baseline: middle; font-size: 10.2px;" transform="translate(5,123)" y="0" x="0" id="text-entity-User-818c511a-4a32-5484-ba70-875d765a9175-attr-5-type" class="er entityLabel">DateTime</text><rect height="22" width="56.243194580078125" y="112" x="54.095550537109375" class="er attributeBoxOdd"/><text style="dominant-baseline: middle; font-size: 10.2px;" transform="translate(59.095550537109375,123)" y="0" x="0" id="text-entity-User-818c511a-4a32-5484-ba70-875d765a9175-attr-5-name" class="er entityLabel">createdAt</text><rect height="22" width="22.68768310546875" y="112" x="110.3387451171875" class="er attributeBoxOdd"/><text style="dominant-baseline: middle; font-size: 10.2px;" transform="translate(115.3387451171875,123)" y="0" x="0" id="text-entity-User-818c511a-4a32-5484-ba70-875d765a9175-attr-5-key" class="er entityLabel"/><rect height="22" width="47.21253967285156" y="112" x="133.02642822265625" class="er attributeBoxOdd"/><text style="dominant-baseline: middle; font-size: 10.2px;" transform="translate(138.02642822265625,123)" y="0" x="0" id="text-entity-User-818c511a-4a32-5484-ba70-875d765a9175-attr-5-comment" class="er entityLabel"/></g><rect height="14" width="32.404296875" y="527.7778930664062" x="361.2397155761719" class="er relationshipLabelBox"/><text style="text-anchor: middle; dominant-baseline: middle; font-size: 12px;" y="534.7778930664062" x="377.4418640136719" id="rel1" class="er relationshipLabel">sports</text><rect height="14" width="25.18359375" y="581.338623046875" x="102.46431732177734" class="er relationshipLabelBox"/><text style="text-anchor: middle; dominant-baseline: middle; font-size: 12px;" y="588.338623046875" x="115.05611419677734" id="rel2" class="er relationshipLabel">User</text><rect height="14" width="63.9453125" y="101.5626220703125" x="236.91549682617188" class="er relationshipLabelBox"/><text style="text-anchor: middle; dominant-baseline: middle; font-size: 12px;" y="108.5626220703125" x="268.8881530761719" id="rel3" class="er relationshipLabel">Participants</text><rect height="14" width="33.517578125" y="158.7561798095703" x="40.31746292114258" class="er relationshipLabelBox"/><text style="text-anchor: middle; dominant-baseline: middle; font-size: 12px;" y="165.7561798095703" x="57.07625198364258" id="rel4" class="er relationshipLabel">Match</text><rect height="14" width="23.958984375" y="421.19012451171875" x="321.2734069824219" class="er relationshipLabelBox"/><text style="text-anchor: middle; dominant-baseline: middle; font-size: 12px;" y="428.19012451171875" x="333.2528991699219" id="rel5" class="er relationshipLabel">user</text><rect height="14.000015258789062" width="33.517578125" y="248.9393081665039" x="185.25953674316406" class="er relationshipLabelBox"/><text style="text-anchor: middle; dominant-baseline: middle; font-size: 12px;" y="255.93931579589844" x="202.01832580566406" id="rel6" class="er relationshipLabel">Match</text></svg>